# Blender v2.65 (sub 0) OBJ File: ''
# www.blender.org
mtllib square.mtl
o Cube_Cube.001
v -0.519113 -1.283225 1.068389
v -0.519113 -1.283225 -0.931611
v 1.480887 -1.283225 -0.931611
v 1.480887 -1.283225 1.068389
v -0.519113 0.716775 1.068389
v -0.519113 0.716775 -0.931611
v 1.480887 0.716775 -0.931611
v 1.480887 0.716775 1.068389
v -0.519113 -1.283225 1.068389
v -0.519113 -1.283225 -0.931611
v 1.480887 -1.283225 -0.931611
v 1.480887 -1.283225 1.068389
v -0.519113 0.716775 1.068389
v -0.519113 0.716775 -0.931611
v 1.480887 0.716775 -0.931611
v 1.480887 0.716775 1.068389
vn 1.000000 0.000000 -0.000000
vn 0.000000 0.000000 1.000000
vn -1.000000 0.000000 -0.000000
vn -0.000000 0.000000 -1.000000
vn 0.000000 1.000000 -0.000000
vn 0.000000 -1.000000 0.000000
usemtl None
s off
f 5//1 1//1 2//1
f 5//1 2//1 6//1
f 6//2 2//2 3//2
f 6//2 3//2 7//2
f 7//3 3//3 4//3
f 7//3 4//3 8//3
f 1//4 5//4 8//4
f 1//4 8//4 4//4
f 1//5 4//5 3//5
f 1//5 3//5 2//5
f 8//6 5//6 6//6
f 8//6 6//6 7//6
f 13//3 14//3 10//3
f 13//3 10//3 9//3
f 14//4 15//4 11//4
f 14//4 11//4 10//4
f 15//1 16//1 12//1
f 15//1 12//1 11//1
f 16//2 13//2 9//2
f 16//2 9//2 12//2
f 9//6 10//6 11//6
f 9//6 11//6 12//6
f 16//5 15//5 14//5
f 16//5 14//5 13//5
